G04 ================== begin FILE IDENTIFICATION RECORD ==================*
G04 Layout Name:  pcb_tutorial.brd*
G04 Film Name:    BOTTOM*
G04 File Format:  Gerber RS274X*
G04 File Origin:  Cadence Allegro 22.1-S001*
G04 Origin Date:  Thu May  4 12:48:09 2023*
G04 *
G04 Layer:  ETCH/BOTTOM*
G04 Layer:  PIN/BOTTOM*
G04 Layer:  VIA CLASS/BOTTOM*
G04 *
G04 Offset:    (0.0000 0.0000)*
G04 Mirror:    No*
G04 Mode:      Positive*
G04 Rotation:  0*
G04 FullContactRelief:  No*
G04 UndefLineWidth:     0.0000*
G04 ================== end FILE IDENTIFICATION RECORD ====================*
%FSLAX25Y25*MOMM*%
%IR0*IPPOS*OFA0.00000B0.00000*MIA0B0*SFA1.00000B1.00000*%
%ADD11C,.6096*%
%ADD13C,1.4224*%
%ADD10C,4.064*%
%ADD12C,1.8796*%
%ADD14C,.381*%
%ADD16C,.864*%
%ADD19C,2.134*%
%ADD15C,4.3184*%
%ADD17C,3.7068*%
%ADD18C,1.6768*%
G75*
%LPD*%
G75*
G36*
G01X9969990Y4969990D02*
Y30010D01*
X30010D01*
Y4969990D01*
X9969990D01*
G37*
%LPC*%
G75*
G54D16*
X2000000Y256820D03*
X356820Y1700000D03*
X2175000Y1762710D03*
X356820Y2000000D03*
X2783170Y2575000D03*
X2837280Y2225000D03*
X3300000Y2556820D03*
X3356820Y2200000D03*
X436820Y3000000D03*
X2225000Y3183170D03*
X2375000D03*
X700000Y3956820D03*
X267820Y3697500D03*
X1000000Y3956820D03*
G54D19*
X1206500Y1460500D03*
X1460500Y1435100D03*
X1714500Y1460500D03*
X1968500Y1435100D03*
X2222500Y1460500D03*
X2476500Y1435100D03*
G54D15*
X400000Y400000D03*
X9600000D03*
X400000Y4600000D03*
X9600000D03*
G54D17*
X4250000Y1050000D03*
X9550000D03*
X4250000Y3950000D03*
X9550000D03*
G54D18*
X4150000Y1600000D03*
Y1800000D03*
X4350000Y1600000D03*
Y1800000D03*
X4150000Y2000000D03*
Y2200000D03*
Y2400000D03*
Y2600000D03*
X4350000Y2000000D03*
Y2200000D03*
Y2400000D03*
Y2600000D03*
X4150000Y2800000D03*
Y3000000D03*
X4350000Y2800000D03*
Y3000000D03*
X4150000Y3200000D03*
X4350000D03*
Y3400000D03*
X4150000D03*
%LPD*%
G75*
G54D10*
X400000Y400000D03*
Y4600000D03*
X9600000Y400000D03*
Y4600000D03*
G54D11*
X643180Y1700000D03*
X356820D03*
X643180Y2000000D03*
X356820D03*
X963170Y3000000D03*
X956820Y2600000D03*
X436820Y3000000D03*
X267820Y3502500D03*
X932180D03*
X267820Y3697500D03*
X700000Y3956820D03*
Y4243180D03*
X1200000Y3456820D03*
X1000000Y3956820D03*
Y4243180D03*
X2400000Y269320D03*
X2000000Y256820D03*
X2175000Y1762710D03*
X2460500Y2525000D03*
Y2281000D03*
X2079500Y2090500D03*
X2075000Y3183170D03*
X2225000D03*
X2375000D03*
X1870000Y4221820D03*
X2783170Y2575000D03*
X2837280Y2225000D03*
X3356820Y1900000D03*
X3300000Y2556820D03*
X3356820Y2200000D03*
X3300000Y2843180D03*
G54D12*
X1714500Y1460500D03*
X1460500Y1435100D03*
X1206500Y1460500D03*
X2476500Y1435100D03*
X2222500Y1460500D03*
X1968500Y1435100D03*
G54D13*
X4150000Y1600000D03*
Y1800000D03*
X4350000Y1600000D03*
Y1800000D03*
X4150000Y2000000D03*
Y2200000D03*
Y2400000D03*
Y2600000D03*
X4350000Y2000000D03*
Y2200000D03*
Y2400000D03*
Y2600000D03*
X4150000Y2800000D03*
Y3000000D03*
X4350000Y2800000D03*
Y3000000D03*
X4150000Y3200000D03*
X4350000D03*
Y3400000D03*
X4150000D03*
G54D14*
G01X1714500Y1348720D02*
Y1460500D01*
G01D02*
Y1572280D01*
G01X1602720Y1460500D02*
X1714500D01*
G01D02*
X1826280D01*
G01X4150000Y3311080D02*
Y3400000D01*
G01D02*
Y3488920D01*
G01X4061080Y3400000D02*
X4150000D01*
G01D02*
X4238920D01*
M02*
