G04 ================== begin FILE IDENTIFICATION RECORD ==================*
G04 Layout Name:  pcb_tutorial.brd*
G04 Film Name:    PASTEMASKTOP*
G04 File Format:  Gerber RS274X*
G04 File Origin:  Cadence Allegro 22.1-S001*
G04 Origin Date:  Thu May  4 12:48:09 2023*
G04 *
G04 Layer:  VIA CLASS/PASTEMASK_TOP*
G04 Layer:  PIN/PASTEMASK_TOP*
G04 Layer:  PACKAGE GEOMETRY/PASTEMASK_TOP*
G04 Layer:  DRC ERROR CLASS/PASTEMASK_TOP*
G04 Layer:  BOARD GEOMETRY/DESIGN_OUTLINE*
G04 *
G04 Offset:    (0.0000 0.0000)*
G04 Mirror:    No*
G04 Mode:      Positive*
G04 Rotation:  0*
G04 FullContactRelief:  No*
G04 UndefLineWidth:     0.1270*
G04 ================== end FILE IDENTIFICATION RECORD ====================*
%FSLAX25Y25*MOMM*%
%IR0*IPPOS*OFA0.00000B0.00000*MIA0B0*SFA1.00000B1.00000*%
%ADD18R,1.8999X1.8999*%
%ADD19R,.35X1.4*%
%ADD13R,1.3096X.431*%
%ADD16R,.95X.445*%
%ADD11R,1.1999X2.*%
%ADD14R,2.1001X1.5999*%
%ADD17R,1.8999X1.1001*%
%ADD15R,1.8001X1.8999*%
%ADD12R,.8999X.7*%
%ADD10R,.7X.8999*%
%ADD20C,.127*%
G75*
%LPD*%
G75*
G36*
G01X1571430Y2511930D02*
X1469320D01*
Y2539110D01*
X1571430D01*
Y2511930D01*
G37*
G36*
G01X1595300Y2461390D02*
X1493190D01*
Y2488570D01*
X1595300D01*
Y2461390D01*
G37*
G36*
G01X1571430Y2411350D02*
X1469320D01*
Y2438530D01*
X1571430D01*
Y2411350D01*
G37*
G36*
G01X1595300Y2361570D02*
X1493190D01*
Y2388750D01*
X1595300D01*
Y2361570D01*
G37*
G36*
G01X1571430Y2311530D02*
X1469320D01*
Y2338710D01*
X1571430D01*
Y2311530D01*
G37*
G36*
G01X1595300Y2261490D02*
X1493190D01*
Y2288670D01*
X1595300D01*
Y2261490D01*
G37*
G36*
G01X1571430Y2211450D02*
X1469320D01*
Y2238630D01*
X1571430D01*
Y2211450D01*
G37*
G36*
G01X1595300Y2161670D02*
X1493190D01*
Y2188850D01*
X1595300D01*
Y2161670D01*
G37*
G36*
G01X1571430Y2111630D02*
X1469320D01*
Y2138810D01*
X1571430D01*
Y2111630D01*
G37*
G36*
G01X1595300Y2861440D02*
X1493190D01*
Y2888620D01*
X1595300D01*
Y2861440D01*
G37*
G36*
G01X1571430Y2811400D02*
X1469320D01*
Y2838580D01*
X1571430D01*
Y2811400D01*
G37*
G36*
G01X1595300Y2761360D02*
X1493190D01*
Y2788540D01*
X1595300D01*
Y2761360D01*
G37*
G36*
G01X1571430Y2711320D02*
X1469320D01*
Y2738500D01*
X1571430D01*
Y2711320D01*
G37*
G36*
G01X1595300Y2661540D02*
X1493190D01*
Y2688720D01*
X1595300D01*
Y2661540D01*
G37*
G36*
G01X1571430Y2611500D02*
X1469320D01*
Y2638680D01*
X1571430D01*
Y2611500D01*
G37*
G36*
G01X1595300Y2561970D02*
X1493190D01*
Y2589150D01*
X1595300D01*
Y2561970D01*
G37*
G36*
G01X1738560Y1896750D02*
X1711380D01*
Y1998850D01*
X1738560D01*
Y1896750D01*
G37*
G36*
G01X1788600Y1872880D02*
X1761420D01*
Y1974980D01*
X1788600D01*
Y1872880D01*
G37*
G36*
G01X1838640Y1896750D02*
X1811460D01*
Y1998850D01*
X1838640D01*
Y1896750D01*
G37*
G36*
G01X1888680Y1872880D02*
X1861500D01*
Y1974980D01*
X1888680D01*
Y1872880D01*
G37*
G36*
G01X1938460Y1896750D02*
X1911280D01*
Y1998850D01*
X1938460D01*
Y1896750D01*
G37*
G36*
G01X1988500Y1872880D02*
X1961320D01*
Y1974980D01*
X1988500D01*
Y1872880D01*
G37*
G36*
G01X2038030Y1896750D02*
X2010850D01*
Y1998850D01*
X2038030D01*
Y1896750D01*
G37*
G36*
G01X2088070Y1872880D02*
X2060890D01*
Y1974980D01*
X2088070D01*
Y1872880D01*
G37*
G36*
G01X2138610Y1896750D02*
X2111430D01*
Y1998850D01*
X2138610D01*
Y1896750D01*
G37*
G36*
G01X2188650Y1872880D02*
X2161470D01*
Y1974980D01*
X2188650D01*
Y1872880D01*
G37*
G36*
G01X2238430Y1896750D02*
X2211250D01*
Y1998850D01*
X2238430D01*
Y1896750D01*
G37*
G36*
G01X2288470Y1872880D02*
X2261290D01*
Y1974980D01*
X2288470D01*
Y1872880D01*
G37*
G36*
G01X2338510Y1896750D02*
X2311330D01*
Y1998850D01*
X2338510D01*
Y1896750D01*
G37*
G36*
G01X2388550Y1872880D02*
X2361370D01*
Y1974980D01*
X2388550D01*
Y1872880D01*
G37*
G36*
G01X2438330Y1896750D02*
X2411150D01*
Y1998850D01*
X2438330D01*
Y1896750D01*
G37*
G36*
G01X1738810Y3029340D02*
X1711630D01*
Y3131440D01*
X1738810D01*
Y3029340D01*
G37*
G36*
G01X1788850Y3005470D02*
X1761670D01*
Y3107570D01*
X1788850D01*
Y3005470D01*
G37*
G36*
G01X1838890Y3029340D02*
X1811710D01*
Y3131440D01*
X1838890D01*
Y3029340D01*
G37*
G36*
G01X1888930Y3005470D02*
X1861750D01*
Y3107570D01*
X1888930D01*
Y3005470D01*
G37*
G36*
G01X1938710Y3029340D02*
X1911530D01*
Y3131440D01*
X1938710D01*
Y3029340D01*
G37*
G36*
G01X1988750Y3005470D02*
X1961570D01*
Y3107570D01*
X1988750D01*
Y3005470D01*
G37*
G36*
G01X2038280Y3029340D02*
X2011100D01*
Y3131440D01*
X2038280D01*
Y3029340D01*
G37*
G36*
G01X2088320Y3005470D02*
X2061140D01*
Y3107570D01*
X2088320D01*
Y3005470D01*
G37*
G36*
G01X2138860Y3029340D02*
X2111680D01*
Y3131440D01*
X2138860D01*
Y3029340D01*
G37*
G36*
G01X2188900Y3005470D02*
X2161720D01*
Y3107570D01*
X2188900D01*
Y3005470D01*
G37*
G36*
G01X2238680Y3029340D02*
X2211500D01*
Y3131440D01*
X2238680D01*
Y3029340D01*
G37*
G36*
G01X2288720Y3005470D02*
X2261540D01*
Y3107570D01*
X2288720D01*
Y3005470D01*
G37*
G36*
G01X2338760Y3029340D02*
X2311580D01*
Y3131440D01*
X2338760D01*
Y3029340D01*
G37*
G36*
G01X2388800Y3005470D02*
X2361620D01*
Y3107570D01*
X2388800D01*
Y3005470D01*
G37*
G36*
G01X2438580Y3029340D02*
X2411400D01*
Y3131440D01*
X2438580D01*
Y3029340D01*
G37*
G36*
G01X2707060Y2511680D02*
X2604950D01*
Y2538860D01*
X2707060D01*
Y2511680D01*
G37*
G36*
G01X2730930Y2461140D02*
X2628820D01*
Y2488320D01*
X2730930D01*
Y2461140D01*
G37*
G36*
G01X2707060Y2411100D02*
X2604950D01*
Y2438280D01*
X2707060D01*
Y2411100D01*
G37*
G36*
G01X2730930Y2361320D02*
X2628820D01*
Y2388500D01*
X2730930D01*
Y2361320D01*
G37*
G36*
G01X2707060Y2311280D02*
X2604950D01*
Y2338460D01*
X2707060D01*
Y2311280D01*
G37*
G36*
G01X2730930Y2261240D02*
X2628820D01*
Y2288420D01*
X2730930D01*
Y2261240D01*
G37*
G36*
G01X2707060Y2211200D02*
X2604950D01*
Y2238380D01*
X2707060D01*
Y2211200D01*
G37*
G36*
G01X2730930Y2161420D02*
X2628820D01*
Y2188600D01*
X2730930D01*
Y2161420D01*
G37*
G36*
G01X2707060Y2111380D02*
X2604950D01*
Y2138560D01*
X2707060D01*
Y2111380D01*
G37*
G36*
G01X2488370Y1872880D02*
X2461190D01*
Y1974980D01*
X2488370D01*
Y1872880D01*
G37*
G36*
G01X2730930Y2861190D02*
X2628820D01*
Y2888370D01*
X2730930D01*
Y2861190D01*
G37*
G36*
G01X2707060Y2811150D02*
X2604950D01*
Y2838330D01*
X2707060D01*
Y2811150D01*
G37*
G36*
G01X2730930Y2761110D02*
X2628820D01*
Y2788290D01*
X2730930D01*
Y2761110D01*
G37*
G36*
G01X2707060Y2711070D02*
X2604950D01*
Y2738250D01*
X2707060D01*
Y2711070D01*
G37*
G36*
G01X2730930Y2661290D02*
X2628820D01*
Y2688470D01*
X2730930D01*
Y2661290D01*
G37*
G36*
G01X2707060Y2611250D02*
X2604950D01*
Y2638430D01*
X2707060D01*
Y2611250D01*
G37*
G36*
G01X2730930Y2561720D02*
X2628820D01*
Y2588900D01*
X2730930D01*
Y2561720D01*
G37*
G36*
G01X2488620Y3005470D02*
X2461440D01*
Y3107570D01*
X2488620D01*
Y3005470D01*
G37*
G54D10*
X565000Y1700000D03*
X435000D03*
X565000Y2000000D03*
X435000D03*
X1035000Y2600000D03*
X1165000D03*
X3435000Y1900000D03*
X3565000D03*
X3435000Y2200000D03*
X3565000D03*
G54D20*
G01X0Y0D02*
Y5000000D01*
X10000000D01*
Y0D01*
X0D01*
G54D11*
X860000Y3000000D03*
X540000D03*
G54D12*
X700000Y4035000D03*
Y4165000D03*
X1200000Y3535000D03*
Y3665000D03*
X1000000Y4035000D03*
Y4165000D03*
X2000000Y465000D03*
Y335000D03*
X3300000Y2765000D03*
Y2635000D03*
G54D13*
X823520Y3697500D03*
Y3632500D03*
Y3567500D03*
Y3502500D03*
X376480D03*
Y3567500D03*
Y3632500D03*
Y3697500D03*
G54D14*
X1690000Y4345000D03*
X2310000D03*
G54D15*
X1620000Y4600000D03*
X2380000D03*
G54D16*
X2400000Y465250D03*
Y334750D03*
G54D17*
X2015000Y3715000D03*
X2385000Y3485000D03*
X2015000D03*
X2385000Y3715000D03*
G54D18*
X1880000Y4600000D03*
X2120000D03*
G54D19*
X1935000Y4335000D03*
X2000000D03*
X2065000D03*
X1870000D03*
X2130000D03*
M02*
