G04 ================== begin FILE IDENTIFICATION RECORD ==================*
G04 Layout Name:  pcb_tutorial.brd*
G04 Film Name:    SILKSCREENTOP*
G04 File Format:  Gerber RS274X*
G04 File Origin:  Cadence Allegro 22.1-S001*
G04 Origin Date:  Thu May  4 12:48:09 2023*
G04 *
G04 Layer:  REF DES/SILKSCREEN_TOP*
G04 Layer:  PACKAGE GEOMETRY/SILKSCREEN_TOP*
G04 Layer:  BOARD GEOMETRY/SILKSCREEN_TOP*
G04 Layer:  BOARD GEOMETRY/DESIGN_OUTLINE*
G04 *
G04 Offset:    (0.0000 0.0000)*
G04 Mirror:    No*
G04 Mode:      Positive*
G04 Rotation:  0*
G04 FullContactRelief:  No*
G04 UndefLineWidth:     0.1270*
G04 ================== end FILE IDENTIFICATION RECORD ====================*
%FSLAX25Y25*MOMM*%
%IR0*IPPOS*OFA0.00000B0.00000*MIA0B0*SFA1.00000B1.00000*%
%ADD10C,.2032*%
%ADD11C,.254*%
%ADD12C,.1524*%
%ADD13C,.4064*%
%ADD14C,.127*%
G75*
%LPD*%
G75*
G54D10*
G01X540000Y3130000D02*
X860000D01*
G01X540000Y2870000D02*
X860000D01*
G01X1079500Y1511300D02*
X1143000Y1574800D01*
G01D02*
X1270000D01*
G01D02*
X1333500Y1511300D01*
G01D02*
X1397000Y1574800D01*
G01D02*
X1524000D01*
G01D02*
X1587500Y1511300D01*
G01D02*
X1651000Y1574800D01*
G01D02*
X1778000D01*
G01Y1320800D02*
X1651000D01*
G01D02*
X1587500Y1384300D01*
G01D02*
X1524000Y1320800D01*
G01D02*
X1397000D01*
G01D02*
X1333500Y1384300D01*
G01D02*
X1270000Y1320800D01*
G01D02*
X1143000D01*
G01D02*
X1079500Y1384300D01*
G01D02*
Y1511300D01*
G01X1333500D02*
Y1384300D01*
G01X1587500Y1511300D02*
Y1384300D01*
G01X2571000Y2029000D02*
X1628000D01*
G01D02*
Y2971000D01*
G01D02*
X2571000D01*
G01X1533000Y4188000D02*
X1780000D01*
G01X1533000Y4475000D02*
Y4188000D01*
G01X2467000Y4745000D02*
X1533000D01*
G01X1778000Y1574800D02*
X1841500Y1511300D01*
G01D02*
X1905000Y1574800D01*
G01D02*
X2032000D01*
G01D02*
X2095500Y1511300D01*
G01D02*
X2159000Y1574800D01*
G01D02*
X2286000D01*
G01D02*
X2349500Y1511300D01*
G01D02*
X2413000Y1574800D01*
G01D02*
X2540000D01*
G01Y1320800D02*
X2413000D01*
G01D02*
X2349500Y1384300D01*
G01D02*
X2286000Y1320800D01*
G01D02*
X2159000D01*
G01D02*
X2095500Y1384300D01*
G01D02*
X2032000Y1320800D01*
G01D02*
X1905000D01*
G01D02*
X1841500Y1384300D01*
G01D02*
X1778000Y1320800D01*
G01X1841500Y1511300D02*
Y1384300D01*
G01X2095500Y1511300D02*
Y1384300D01*
G01X2349500Y1511300D02*
Y1384300D01*
G01X2260000Y3440000D02*
X2140000D01*
G01X1950000Y3570000D02*
Y3630000D01*
G01X2140000Y3760000D02*
X2260000D01*
G01X2450000Y3570000D02*
Y3630000D01*
G01X2467000Y4475000D02*
Y4188000D01*
G01D02*
X2220000D01*
G01D02*
Y4201000D01*
G01D02*
X1780000D01*
G01D02*
Y4188000D01*
G01X2540000Y1574800D02*
X2603500Y1511300D01*
G01D02*
Y1384300D01*
G01D02*
X2540000Y1320800D01*
G01X2571000Y2971000D02*
Y2029000D01*
G54D11*
G01X1775010Y2124990D02*
G02I-50020J0D01*
G54D12*
G01X762560Y3762560D02*
X437440D01*
G01Y3437440D02*
X762560D01*
G01X2336500Y185500D02*
X2463500D01*
G01X2400000Y109300D02*
X2412700Y185500D01*
G01X2400000Y109300D02*
X2425400Y185500D01*
G01X2400000Y109300D02*
X2438100Y185500D01*
G01X2400000Y109300D02*
X2450800Y185500D01*
G01X2400000Y109300D02*
X2463500Y185500D01*
G01X2400000Y109300D02*
X2387300Y185500D01*
G01X2400000Y109300D02*
X2374600Y185500D01*
G01X2400000Y109300D02*
X2361900Y185500D01*
G01X2400000Y109300D02*
X2349200Y185500D01*
G01X2400000Y109300D02*
X2336500Y185500D01*
G01Y109300D02*
X2463500D01*
G01X2400000Y210900D02*
Y83900D01*
G01X2339800Y412250D02*
Y387750D01*
G01X2460200D02*
Y412250D01*
G54D13*
G01X500000Y1703050D02*
Y1696950D01*
G01Y2003050D02*
Y1996950D01*
G01X696950Y4100000D02*
X703050D01*
G01X1100000Y2596950D02*
Y2603050D01*
G01X1203050Y3600000D02*
X1196950D01*
G01X996950Y4100000D02*
X1003050D01*
G01X3500000Y1896950D02*
Y1903050D01*
G01X3296950Y2700000D02*
X3303050D01*
G54D14*
G01X0Y0D02*
Y5000000D01*
X10000000D01*
Y0D01*
X0D01*
G01X450630Y2172180D02*
X444790Y2176120D01*
X437970Y2178740D01*
X430180D01*
X421420Y2174800D01*
X414610Y2168240D01*
X409740Y2160370D01*
X405840Y2147240D01*
X404870Y2135430D01*
X406820Y2123620D01*
X409740Y2115750D01*
X415580Y2107870D01*
X422390Y2102620D01*
X429210Y2100000D01*
X436030D01*
X442840Y2102620D01*
X448680Y2106560D01*
X453550Y2111810D01*
G01X519630Y2100000D02*
Y2178740D01*
X483610Y2122310D01*
X532290D01*
G01X450630Y1872180D02*
X444790Y1876120D01*
X437970Y1878740D01*
X430180D01*
X421420Y1874800D01*
X414610Y1868240D01*
X409740Y1860370D01*
X405840Y1847240D01*
X404870Y1835430D01*
X406820Y1823620D01*
X409740Y1815750D01*
X415580Y1807870D01*
X422390Y1802620D01*
X429210Y1800000D01*
X436030D01*
X442840Y1802620D01*
X448680Y1806560D01*
X453550Y1811810D01*
G01X486530D02*
X492370Y1805250D01*
X499190Y1801310D01*
X507950Y1800000D01*
X516710Y1802620D01*
X523530Y1807870D01*
X528400Y1817060D01*
X529370Y1827560D01*
X527420Y1838060D01*
X522550Y1844620D01*
X515740Y1849870D01*
X508920Y1851180D01*
X502110Y1849870D01*
X493350Y1844620D01*
X496270Y1878740D01*
X522550D01*
G01X650630Y3272180D02*
X644790Y3276120D01*
X637970Y3278740D01*
X630180D01*
X621420Y3274800D01*
X614610Y3268240D01*
X609740Y3260370D01*
X605840Y3247240D01*
X604870Y3235430D01*
X606820Y3223620D01*
X609740Y3215750D01*
X615580Y3207870D01*
X622390Y3202620D01*
X629210Y3200000D01*
X636030D01*
X642840Y3202620D01*
X648680Y3206560D01*
X653550Y3211810D01*
G01X689450Y3265620D02*
X695290Y3273490D01*
X702110Y3277430D01*
X709900Y3278740D01*
X719630Y3276120D01*
X726450Y3269550D01*
X728400Y3261680D01*
X727420Y3253800D01*
X723530Y3247240D01*
X704060Y3234120D01*
X695290Y3224930D01*
X689450Y3211810D01*
X687500Y3200000D01*
X728400D01*
G01X339210Y3978740D02*
Y3922310D01*
X343100Y3910500D01*
X350890Y3902620D01*
X360630Y3900000D01*
X370370Y3902620D01*
X378160Y3910500D01*
X382050Y3922310D01*
Y3978740D01*
G01X439370Y3900000D02*
Y3978740D01*
X427690Y3962990D01*
G01Y3900000D02*
X451050D01*
G01X750630Y4372180D02*
X744790Y4376120D01*
X737970Y4378740D01*
X730180D01*
X721420Y4374800D01*
X714610Y4368240D01*
X709740Y4360370D01*
X705840Y4347240D01*
X704870Y4335430D01*
X706820Y4323620D01*
X709740Y4315750D01*
X715580Y4307870D01*
X722390Y4302620D01*
X729210Y4300000D01*
X736030D01*
X742840Y4302620D01*
X748680Y4306560D01*
X753550Y4311810D01*
G01X807950Y4300000D02*
X814770Y4301310D01*
X822550Y4305250D01*
X827420Y4311810D01*
X829370Y4321000D01*
X827420Y4330180D01*
X821580Y4338060D01*
X812820Y4342000D01*
X803080D01*
X797240Y4344620D01*
X792370Y4351180D01*
X790420Y4360370D01*
X793350Y4369550D01*
X800160Y4376120D01*
X807950Y4378740D01*
X815740Y4376120D01*
X822550Y4369550D01*
X825480Y4360370D01*
X823530Y4351180D01*
X818660Y4344620D01*
X812820Y4342000D01*
X803080D01*
X794320Y4338060D01*
X788480Y4330180D01*
X786530Y4321000D01*
X788480Y4311810D01*
X793350Y4305250D01*
X801130Y4301310D01*
X807950Y4300000D01*
G01X1516240Y1676250D02*
X1521110Y1668370D01*
X1526950Y1663120D01*
X1533760Y1660500D01*
X1541550Y1663120D01*
X1547390Y1668370D01*
X1553240Y1676250D01*
X1555180Y1686750D01*
Y1739240D01*
G01X1594980Y1660500D02*
Y1739240D01*
X1618340D01*
X1626130Y1735300D01*
X1631980Y1726120D01*
X1633920Y1715620D01*
X1631980Y1705120D01*
X1627110Y1697240D01*
X1618340Y1693310D01*
X1594980D01*
G01X1674690Y1726120D02*
X1680530Y1733990D01*
X1687350Y1737930D01*
X1695140Y1739240D01*
X1704870Y1736620D01*
X1711690Y1730050D01*
X1713640Y1722180D01*
X1712660Y1714300D01*
X1708770Y1707740D01*
X1689300Y1694620D01*
X1680530Y1685430D01*
X1674690Y1672310D01*
X1672740Y1660500D01*
X1713640D01*
G01X1617530Y3378740D02*
X1640890D01*
G01X1629210D02*
Y3300000D01*
G01X1617530D02*
X1640890D01*
G01X1729370Y3372180D02*
X1723530Y3376120D01*
X1716710Y3378740D01*
X1708920D01*
X1700160Y3374800D01*
X1693350Y3368240D01*
X1688480Y3360370D01*
X1684580Y3347240D01*
X1683610Y3335430D01*
X1685560Y3323620D01*
X1688480Y3315750D01*
X1694320Y3307870D01*
X1701130Y3302620D01*
X1707950Y3300000D01*
X1714770D01*
X1721580Y3302620D01*
X1727420Y3306560D01*
X1732290Y3311810D01*
G01X1786690Y3300000D02*
Y3378740D01*
X1775010Y3362990D01*
G01Y3300000D02*
X1798370D01*
G01X1150630Y2772180D02*
X1144790Y2776120D01*
X1137970Y2778740D01*
X1130180D01*
X1121420Y2774800D01*
X1114610Y2768240D01*
X1109740Y2760370D01*
X1105840Y2747240D01*
X1104870Y2735430D01*
X1106820Y2723620D01*
X1109740Y2715750D01*
X1115580Y2707870D01*
X1122390Y2702620D01*
X1129210Y2700000D01*
X1136030D01*
X1142840Y2702620D01*
X1148680Y2706560D01*
X1153550Y2711810D01*
G01X1191400Y2709180D02*
X1198210Y2702620D01*
X1206000Y2700000D01*
X1213790Y2702620D01*
X1220610Y2710500D01*
X1225480Y2722310D01*
X1227420Y2734120D01*
Y2748560D01*
X1225480Y2760370D01*
X1220610Y2770870D01*
X1214770Y2776120D01*
X1207950Y2778740D01*
X1200160Y2776120D01*
X1194320Y2770870D01*
X1190420Y2762990D01*
X1188480Y2752490D01*
X1190420Y2743310D01*
X1195290Y2734120D01*
X1201130Y2728870D01*
X1207950Y2727560D01*
X1215740Y2730180D01*
X1221580Y2736740D01*
X1227420Y2748560D01*
G01X1250630Y3872180D02*
X1244790Y3876120D01*
X1237970Y3878740D01*
X1230180D01*
X1221420Y3874800D01*
X1214610Y3868240D01*
X1209740Y3860370D01*
X1205840Y3847240D01*
X1204870Y3835430D01*
X1206820Y3823620D01*
X1209740Y3815750D01*
X1215580Y3807870D01*
X1222390Y3802620D01*
X1229210Y3800000D01*
X1236030D01*
X1242840Y3802620D01*
X1248680Y3806560D01*
X1253550Y3811810D01*
G01X1307950Y3800000D02*
Y3878740D01*
X1296270Y3862990D01*
G01Y3800000D02*
X1319630D01*
G01X1050630Y4372180D02*
X1044790Y4376120D01*
X1037970Y4378740D01*
X1030180D01*
X1021420Y4374800D01*
X1014610Y4368240D01*
X1009740Y4360370D01*
X1005840Y4347240D01*
X1004870Y4335430D01*
X1006820Y4323620D01*
X1009740Y4315750D01*
X1015580Y4307870D01*
X1022390Y4302620D01*
X1029210Y4300000D01*
X1036030D01*
X1042840Y4302620D01*
X1048680Y4306560D01*
X1053550Y4311810D01*
G01X1089450Y4332810D02*
X1096270Y4342000D01*
X1102110Y4347240D01*
X1109900Y4349870D01*
X1116710Y4347240D01*
X1121580Y4342000D01*
X1125480Y4334120D01*
X1126450Y4324930D01*
X1125480Y4317060D01*
X1121580Y4309180D01*
X1115740Y4302620D01*
X1108920Y4300000D01*
X1101130Y4302620D01*
X1094320Y4310500D01*
X1090420Y4322310D01*
X1089450Y4335430D01*
X1091400Y4352490D01*
X1094320Y4361680D01*
X1099190Y4370870D01*
X1106000Y4377430D01*
X1112820Y4378740D01*
X1119630Y4376120D01*
X1124500Y4369550D01*
G01X2009740Y600000D02*
Y678740D01*
X2034080D01*
X2041870Y674800D01*
X2046740Y669550D01*
X2048680Y659050D01*
X2046740Y648560D01*
X2040890Y642000D01*
X2034080Y638060D01*
X2009740D01*
G01X2034080D02*
X2048680Y600000D01*
G01X2107950D02*
Y678740D01*
X2096270Y662990D01*
G01Y600000D02*
X2119630D01*
G01X2035560Y379680D02*
X1964440D01*
Y420320D01*
X2035560D01*
Y379680D01*
G01X2108760Y4000000D02*
X2149660Y4078740D01*
G01X2108760D02*
X2149660Y4000000D01*
G01X2207950D02*
Y4078740D01*
X2196270Y4062990D01*
G01Y4000000D02*
X2219630D01*
G01X2129210Y3900000D02*
Y3935430D01*
X2109740Y3978740D01*
G01X2148680D02*
X2129210Y3935430D01*
G01X2207950Y3900000D02*
Y3978740D01*
X2196270Y3962990D01*
G01Y3900000D02*
X2219630D01*
G01X2599090Y400000D02*
Y478740D01*
X2624410Y413120D01*
X2649730Y478740D01*
Y400000D01*
G01X2678810D02*
X2703150Y478740D01*
X2727490Y400000D01*
G01X2718730Y427560D02*
X2687570D01*
G01X2770210Y478740D02*
X2793570D01*
G01X2781890D02*
Y400000D01*
G01X2770210D02*
X2793570D01*
G01X2838240D02*
Y478740D01*
X2883020Y400000D01*
Y478740D01*
G01X2910160Y373750D02*
X2968580D01*
G01X2998640Y400000D02*
Y478740D01*
X3022000D01*
X3029790Y474800D01*
X3035640Y465620D01*
X3037580Y455120D01*
X3035640Y444620D01*
X3030770Y436740D01*
X3022000Y432810D01*
X2998640D01*
G01X3067640Y478740D02*
X3081270Y400000D01*
X3096850Y478740D01*
X3112430Y400000D01*
X3126060Y478740D01*
G01X3156120Y400000D02*
Y478740D01*
X3180460D01*
X3188250Y474800D01*
X3193120Y469550D01*
X3195060Y459050D01*
X3193120Y448560D01*
X3187270Y442000D01*
X3180460Y438060D01*
X3156120D01*
G01X3180460D02*
X3195060Y400000D01*
G01X3450630Y2072180D02*
X3444790Y2076120D01*
X3437970Y2078740D01*
X3430180D01*
X3421420Y2074800D01*
X3414610Y2068240D01*
X3409740Y2060370D01*
X3405840Y2047240D01*
X3404870Y2035430D01*
X3406820Y2023620D01*
X3409740Y2015750D01*
X3415580Y2007870D01*
X3422390Y2002620D01*
X3429210Y2000000D01*
X3436030D01*
X3442840Y2002620D01*
X3448680Y2006560D01*
X3453550Y2011810D01*
G01X3486530Y2015750D02*
X3492370Y2006560D01*
X3500160Y2001310D01*
X3508920Y2000000D01*
X3516710Y2001310D01*
X3524500Y2007870D01*
X3529370Y2015750D01*
X3530340Y2023620D01*
X3528400Y2032810D01*
X3521580Y2039370D01*
X3514770Y2042000D01*
X3506000D01*
G01X3514770D02*
X3520610Y2045930D01*
X3525480Y2052490D01*
X3527420Y2060370D01*
X3525480Y2068240D01*
X3520610Y2074800D01*
X3511840Y2078740D01*
X3503080Y2077430D01*
X3494320Y2072180D01*
G01X3409740Y2300000D02*
Y2378740D01*
X3434080D01*
X3441870Y2374800D01*
X3446740Y2369550D01*
X3448680Y2359050D01*
X3446740Y2348560D01*
X3440890Y2342000D01*
X3434080Y2338060D01*
X3409740D01*
G01X3434080D02*
X3448680Y2300000D01*
G01X3489450Y2365620D02*
X3495290Y2373490D01*
X3502110Y2377430D01*
X3509900Y2378740D01*
X3519630Y2376120D01*
X3526450Y2369550D01*
X3528400Y2361680D01*
X3527420Y2353800D01*
X3523530Y2347240D01*
X3504060Y2334120D01*
X3495290Y2324930D01*
X3489450Y2311810D01*
X3487500Y2300000D01*
X3528400D01*
G01X3520320Y2235560D02*
Y2164440D01*
X3479680D01*
Y2235560D01*
X3520320D01*
G01X3350630Y2972180D02*
X3344790Y2976120D01*
X3337970Y2978740D01*
X3330180D01*
X3321420Y2974800D01*
X3314610Y2968240D01*
X3309740Y2960370D01*
X3305840Y2947240D01*
X3304870Y2935430D01*
X3306820Y2923620D01*
X3309740Y2915750D01*
X3315580Y2907870D01*
X3322390Y2902620D01*
X3329210Y2900000D01*
X3336030D01*
X3342840Y2902620D01*
X3348680Y2906560D01*
X3353550Y2911810D01*
G01X3406000Y2900000D02*
X3407950Y2917060D01*
X3410870Y2931490D01*
X3414770Y2944620D01*
X3419630Y2959050D01*
X3427420Y2978740D01*
X3388480D01*
G01X3709740Y3715750D02*
X3714610Y3707870D01*
X3720450Y3702620D01*
X3727260Y3700000D01*
X3735050Y3702620D01*
X3740890Y3707870D01*
X3746740Y3715750D01*
X3748680Y3726250D01*
Y3778740D01*
G01X3788480Y3700000D02*
Y3778740D01*
X3811840D01*
X3819630Y3774800D01*
X3825480Y3765620D01*
X3827420Y3755120D01*
X3825480Y3744620D01*
X3820610Y3736740D01*
X3811840Y3732810D01*
X3788480D01*
G01X3886690Y3700000D02*
Y3778740D01*
X3875010Y3762990D01*
G01Y3700000D02*
X3898370D01*
M02*
