G04 ================== begin FILE IDENTIFICATION RECORD ==================*
G04 Layout Name:  pcb_tutorial.brd*
G04 Film Name:    SOLDERMASKBOTTOM*
G04 File Format:  Gerber RS274X*
G04 File Origin:  Cadence Allegro 22.1-S001*
G04 Origin Date:  Thu May  4 12:48:09 2023*
G04 *
G04 Layer:  VIA CLASS/SOLDERMASK_BOTTOM*
G04 Layer:  PIN/SOLDERMASK_BOTTOM*
G04 Layer:  PACKAGE GEOMETRY/SOLDERMASK_BOTTOM*
G04 Layer:  DRC ERROR CLASS/SOLDERMASK_BOTTOM*
G04 Layer:  BOARD GEOMETRY/SOLDERMASK_BOTTOM*
G04 Layer:  BOARD GEOMETRY/DESIGN_OUTLINE*
G04 *
G04 Offset:    (0.0000 0.0000)*
G04 Mirror:    No*
G04 Mode:      Positive*
G04 Rotation:  0*
G04 FullContactRelief:  No*
G04 UndefLineWidth:     0.1270*
G04 ================== end FILE IDENTIFICATION RECORD ====================*
%FSLAX25Y25*MOMM*%
%IR0*IPPOS*OFA0.00000B0.00000*MIA0B0*SFA1.00000B1.00000*%
%ADD13C,3.5032*%
%ADD11C,1.1176*%
%ADD10C,4.318*%
%ADD14C,1.6256*%
%ADD12C,2.0828*%
%ADD15C,.127*%
G75*
%LPD*%
G75*
G54D10*
X400000Y400000D03*
Y4600000D03*
X9600000Y400000D03*
Y4600000D03*
G54D11*
X643180Y1700000D03*
X356820D03*
X643180Y2000000D03*
X356820D03*
X963170Y3000000D03*
X956820Y2600000D03*
X436820Y3000000D03*
X267820Y3502500D03*
X932180D03*
X267820Y3697500D03*
X700000Y3956820D03*
Y4243180D03*
X1200000Y3456820D03*
X1000000Y3956820D03*
Y4243180D03*
X2400000Y269320D03*
X2000000Y256820D03*
X2175000Y1762710D03*
X2460500Y2525000D03*
Y2281000D03*
X2079500Y2090500D03*
X2075000Y3183170D03*
X2225000D03*
X2375000D03*
X1870000Y4221820D03*
X2783170Y2575000D03*
X2837280Y2225000D03*
X3356820Y1900000D03*
X3300000Y2556820D03*
X3356820Y2200000D03*
X3300000Y2843180D03*
G54D12*
X1714500Y1460500D03*
X1460500Y1435100D03*
X1206500Y1460500D03*
X2476500Y1435100D03*
X2222500Y1460500D03*
X1968500Y1435100D03*
G54D13*
X4250000Y1050000D03*
Y3950000D03*
X9550000Y1050000D03*
Y3950000D03*
G54D14*
X4150000Y1600000D03*
Y1800000D03*
X4350000Y1600000D03*
Y1800000D03*
X4150000Y2000000D03*
Y2200000D03*
Y2400000D03*
Y2600000D03*
X4350000Y2000000D03*
Y2200000D03*
Y2400000D03*
Y2600000D03*
X4150000Y2800000D03*
Y3000000D03*
X4350000Y2800000D03*
Y3000000D03*
X4150000Y3200000D03*
X4350000D03*
Y3400000D03*
X4150000D03*
G54D15*
G01X0Y0D02*
Y5000000D01*
X10000000D01*
Y0D01*
X0D01*
M02*
