G04 ================== begin FILE IDENTIFICATION RECORD ==================*
G04 Layout Name:  pcb_tutorial.brd*
G04 Film Name:    SOLDERMASKTOP*
G04 File Format:  Gerber RS274X*
G04 File Origin:  Cadence Allegro 22.1-S001*
G04 Origin Date:  Thu May  4 12:48:09 2023*
G04 *
G04 Layer:  VIA CLASS/SOLDERMASK_TOP*
G04 Layer:  PIN/SOLDERMASK_TOP*
G04 Layer:  PACKAGE GEOMETRY/SOLDERMASK_TOP*
G04 Layer:  DRC ERROR CLASS/SOLDERMASK_TOP*
G04 Layer:  BOARD GEOMETRY/SOLDERMASK_TOP*
G04 Layer:  BOARD GEOMETRY/DESIGN_OUTLINE*
G04 *
G04 Offset:    (0.0000 0.0000)*
G04 Mirror:    No*
G04 Mode:      Positive*
G04 Rotation:  0*
G04 FullContactRelief:  No*
G04 UndefLineWidth:     0.1270*
G04 ================== end FILE IDENTIFICATION RECORD ====================*
%FSLAX25Y25*MOMM*%
%IR0*IPPOS*OFA0.00000B0.00000*MIA0B0*SFA1.00000B1.00000*%
%ADD14R,1.1031X.9032*%
%ADD11R,.9032X1.1031*%
%ADD24R,.5532X1.6032*%
%ADD15R,1.3096X.431*%
%ADD21R,.4981X1.8031*%
%ADD17R,1.8031X.4981*%
%ADD19R,2.0033X2.1031*%
%ADD22R,2.1031X1.3033*%
%ADD13R,1.4031X2.2032*%
%ADD18R,2.3033X1.8031*%
%ADD25C,3.5032*%
%ADD23R,2.1031X2.1031*%
%ADD12C,1.1176*%
%ADD10C,4.318*%
%ADD20R,.95X.445*%
%ADD26C,1.6256*%
%ADD16C,2.0828*%
%ADD27C,.127*%
G75*
%LPD*%
G75*
G54D10*
X400000Y400000D03*
Y4600000D03*
X9600000Y400000D03*
Y4600000D03*
G54D20*
X2400000Y465250D03*
Y334750D03*
G54D11*
X565000Y1700000D03*
X435000D03*
X565000Y2000000D03*
X435000D03*
X1035000Y2600000D03*
X1165000D03*
X3435000Y1900000D03*
X3565000D03*
X3435000Y2200000D03*
X3565000D03*
G54D12*
X643180Y1700000D03*
X356820D03*
X643180Y2000000D03*
X356820D03*
X963170Y3000000D03*
X956820Y2600000D03*
X436820Y3000000D03*
X267820Y3502500D03*
X932180D03*
X267820Y3697500D03*
X700000Y3956820D03*
Y4243180D03*
X1200000Y3456820D03*
X1000000Y3956820D03*
Y4243180D03*
X2400000Y269320D03*
X2000000Y256820D03*
X2175000Y1762710D03*
X2460500Y2525000D03*
Y2281000D03*
X2079500Y2090500D03*
X2075000Y3183170D03*
X2225000D03*
X2375000D03*
X1870000Y4221820D03*
X2783170Y2575000D03*
X2837280Y2225000D03*
X3356820Y1900000D03*
X3300000Y2556820D03*
X3356820Y2200000D03*
X3300000Y2843180D03*
G54D21*
X2475000Y1940000D03*
X2425000D03*
X2375000D03*
X2325000D03*
X2275000D03*
X2225000D03*
X2175000D03*
X2125000D03*
X2075000D03*
X2025000D03*
X1975000D03*
X1925000D03*
X1875000D03*
X1825000D03*
X1775000D03*
X1725000D03*
Y3060000D03*
X1775000D03*
X1825000D03*
X1875000D03*
X1925000D03*
X1975000D03*
X2025000D03*
X2075000D03*
X2125000D03*
X2175000D03*
X2225000D03*
X2275000D03*
X2325000D03*
X2375000D03*
X2425000D03*
X2475000D03*
G54D13*
X860000Y3000000D03*
X540000D03*
G54D22*
X2015000Y3715000D03*
X2385000Y3485000D03*
X2015000D03*
X2385000Y3715000D03*
G54D23*
X1880000Y4600000D03*
X2120000D03*
G54D14*
X700000Y4035000D03*
Y4165000D03*
X1200000Y3535000D03*
Y3665000D03*
X1000000Y4035000D03*
Y4165000D03*
X2000000Y465000D03*
Y335000D03*
X3300000Y2765000D03*
Y2635000D03*
G54D15*
X823520Y3697500D03*
Y3632500D03*
Y3567500D03*
Y3502500D03*
X376480D03*
Y3567500D03*
Y3632500D03*
Y3697500D03*
G54D24*
X1935000Y4335000D03*
X2000000D03*
X2065000D03*
X1870000D03*
X2130000D03*
G54D16*
X1714500Y1460500D03*
X1460500Y1435100D03*
X1206500Y1460500D03*
X2476500Y1435100D03*
X2222500Y1460500D03*
X1968500Y1435100D03*
G54D25*
X4250000Y1050000D03*
Y3950000D03*
X9550000Y1050000D03*
Y3950000D03*
G54D26*
X4150000Y1600000D03*
Y1800000D03*
X4350000Y1600000D03*
Y1800000D03*
X4150000Y2000000D03*
Y2200000D03*
Y2400000D03*
Y2600000D03*
X4350000Y2000000D03*
Y2200000D03*
Y2400000D03*
Y2600000D03*
X4150000Y2800000D03*
Y3000000D03*
X4350000Y2800000D03*
Y3000000D03*
X4150000Y3200000D03*
X4350000D03*
Y3400000D03*
X4150000D03*
G54D17*
X1540000Y2125000D03*
Y2175000D03*
Y2225000D03*
Y2275000D03*
Y2325000D03*
Y2375000D03*
Y2425000D03*
Y2475000D03*
Y2525000D03*
Y2575000D03*
Y2625000D03*
Y2675000D03*
Y2725000D03*
Y2775000D03*
Y2825000D03*
Y2875000D03*
X2660000Y2525000D03*
Y2475000D03*
Y2425000D03*
Y2375000D03*
Y2325000D03*
Y2275000D03*
Y2225000D03*
Y2175000D03*
Y2125000D03*
Y2875000D03*
Y2825000D03*
Y2775000D03*
Y2725000D03*
Y2675000D03*
Y2625000D03*
Y2575000D03*
G54D27*
G01X0Y0D02*
Y5000000D01*
X10000000D01*
Y0D01*
X0D01*
G54D18*
X1690000Y4345000D03*
X2310000D03*
G54D19*
X1620000Y4600000D03*
X2380000D03*
M02*
