G04 ================== begin FILE IDENTIFICATION RECORD ==================*
G04 Layout Name:  pcb_tutorial.brd*
G04 Film Name:    TOP*
G04 File Format:  Gerber RS274X*
G04 File Origin:  Cadence Allegro 22.1-S001*
G04 Origin Date:  Thu May  4 12:48:09 2023*
G04 *
G04 Layer:  ETCH/TOP*
G04 Layer:  PIN/TOP*
G04 Layer:  VIA CLASS/TOP*
G04 *
G04 Offset:    (0.0000 0.0000)*
G04 Mirror:    No*
G04 Mode:      Positive*
G04 Rotation:  0*
G04 FullContactRelief:  No*
G04 UndefLineWidth:     0.0000*
G04 ================== end FILE IDENTIFICATION RECORD ====================*
%FSLAX25Y25*MOMM*%
%IR0*IPPOS*OFA0.00000B0.00000*MIA0B0*SFA1.00000B1.00000*%
%ADD23R,1.8999X1.8999*%
%ADD24R,.35X1.4*%
%ADD15R,1.3096X.431*%
%ADD12C,.6096*%
%ADD21R,.2949X1.5999*%
%ADD17R,1.5999X.2949*%
%ADD25C,1.4224*%
%ADD10C,4.064*%
%ADD20R,.95X.445*%
%ADD13R,1.1999X2.*%
%ADD18R,2.1001X1.5999*%
%ADD22R,1.8999X1.1001*%
%ADD16C,1.8796*%
%ADD19R,1.8001X1.8999*%
%ADD14R,.8999X.7*%
%ADD11R,.7X.8999*%
%ADD26C,.28*%
%ADD27C,.127*%
%ADD28C,.381*%
G75*
%LPD*%
G75*
G54D10*
X400000Y400000D03*
Y4600000D03*
X9600000Y400000D03*
Y4600000D03*
G54D11*
X565000Y1700000D03*
X435000D03*
X565000Y2000000D03*
X435000D03*
X1035000Y2600000D03*
X1165000D03*
X3435000Y1900000D03*
X3565000D03*
X3435000Y2200000D03*
X3565000D03*
G54D20*
X2400000Y465250D03*
Y334750D03*
G54D21*
X2475000Y1940000D03*
X2425000D03*
X2375000D03*
X2325000D03*
X2275000D03*
X2225000D03*
X2175000D03*
X2125000D03*
X2075000D03*
X2025000D03*
X1975000D03*
X1925000D03*
X1875000D03*
X1825000D03*
X1775000D03*
X1725000D03*
Y3060000D03*
X1775000D03*
X1825000D03*
X1875000D03*
X1925000D03*
X1975000D03*
X2025000D03*
X2075000D03*
X2125000D03*
X2175000D03*
X2225000D03*
X2275000D03*
X2325000D03*
X2375000D03*
X2425000D03*
X2475000D03*
G54D12*
X643180Y1700000D03*
X356820D03*
X643180Y2000000D03*
X356820D03*
X963170Y3000000D03*
X956820Y2600000D03*
X436820Y3000000D03*
X267820Y3502500D03*
X932180D03*
X267820Y3697500D03*
X700000Y3956820D03*
Y4243180D03*
X1200000Y3456820D03*
X1000000Y3956820D03*
Y4243180D03*
X2400000Y269320D03*
X2000000Y256820D03*
X2175000Y1762710D03*
X2460500Y2525000D03*
Y2281000D03*
X2079500Y2090500D03*
X2075000Y3183170D03*
X2225000D03*
X2375000D03*
X1870000Y4221820D03*
X2783170Y2575000D03*
X2837280Y2225000D03*
X3356820Y1900000D03*
X3300000Y2556820D03*
X3356820Y2200000D03*
X3300000Y2843180D03*
G54D22*
X2015000Y3715000D03*
X2385000Y3485000D03*
X2015000D03*
X2385000Y3715000D03*
G54D13*
X860000Y3000000D03*
X540000D03*
G54D14*
X700000Y4035000D03*
Y4165000D03*
X1200000Y3535000D03*
Y3665000D03*
X1000000Y4035000D03*
Y4165000D03*
X2000000Y465000D03*
Y335000D03*
X3300000Y2765000D03*
Y2635000D03*
G54D23*
X1880000Y4600000D03*
X2120000D03*
G54D15*
X823520Y3697500D03*
Y3632500D03*
Y3567500D03*
Y3502500D03*
X376480D03*
Y3567500D03*
Y3632500D03*
Y3697500D03*
G54D24*
X1935000Y4335000D03*
X2000000D03*
X2065000D03*
X1870000D03*
X2130000D03*
G54D16*
X1714500Y1460500D03*
X1460500Y1435100D03*
X1206500Y1460500D03*
X2476500Y1435100D03*
X2222500Y1460500D03*
X1968500Y1435100D03*
G54D25*
X4150000Y1600000D03*
Y1800000D03*
X4350000Y1600000D03*
Y1800000D03*
X4150000Y2000000D03*
Y2200000D03*
Y2400000D03*
Y2600000D03*
X4350000Y2000000D03*
Y2200000D03*
Y2400000D03*
Y2600000D03*
X4150000Y2800000D03*
Y3000000D03*
X4350000Y2800000D03*
Y3000000D03*
X4150000Y3200000D03*
X4350000D03*
Y3400000D03*
X4150000D03*
G54D26*
G01X2175000Y1940000D02*
Y1762710D01*
G01X2660000Y2525000D02*
X2460500D01*
G01X2660000Y2275000D02*
X2528740D01*
X2522740Y2281000D01*
X2460500D01*
G01X2125000Y1940000D02*
Y2045000D01*
X2079500Y2090500D01*
G01X2660000Y2225000D02*
X2837280D01*
G01X2660000Y2575000D02*
X2783170D01*
G54D17*
X1540000Y2125000D03*
Y2175000D03*
Y2225000D03*
Y2275000D03*
Y2325000D03*
Y2375000D03*
Y2425000D03*
Y2475000D03*
Y2525000D03*
Y2575000D03*
Y2625000D03*
Y2675000D03*
Y2725000D03*
Y2775000D03*
Y2825000D03*
Y2875000D03*
X2660000Y2525000D03*
Y2475000D03*
Y2425000D03*
Y2375000D03*
Y2325000D03*
Y2275000D03*
Y2225000D03*
Y2175000D03*
Y2125000D03*
Y2875000D03*
Y2825000D03*
Y2775000D03*
Y2725000D03*
Y2675000D03*
Y2625000D03*
Y2575000D03*
G54D27*
G01X823520Y3632500D02*
Y3697500D01*
G01Y3567500D02*
Y3632500D01*
G01D02*
X1103440D01*
X1135940Y3665000D01*
X1200000D01*
G01X1206500Y1460500D02*
X1460500Y1714500D01*
X1898560D01*
X2025000Y1840940D01*
Y1940000D01*
G01X1540000Y2525000D02*
X1440940D01*
X1365940Y2600000D01*
X1165000D01*
G01X1540000Y2375000D02*
X1983000D01*
X2698170Y3090170D01*
X4387350D01*
X4440170Y3037350D01*
Y2962650D01*
X4387350Y2909830D01*
X4259830D01*
X4150000Y2800000D01*
G01X2380060Y2916000D02*
X1747310D01*
X1444500Y3218810D01*
Y3487500D01*
X1267000Y3665000D01*
X1200000D01*
G01X2400000Y465250D02*
X2064310D01*
X2064060Y465000D01*
X2000000D01*
G01X2660000Y2125000D02*
Y1898000D01*
X2222500Y1460500D01*
G01X1968500Y1435100D02*
X2184400Y1651000D01*
X2307690D01*
X2540000Y1883310D01*
Y2154060D01*
X2560940Y2175000D01*
X2660000D01*
G01X2385000Y3715000D02*
Y3602500D01*
X2341560Y3559060D01*
X2282110D01*
X2175000Y3451950D01*
Y3060000D01*
G01X2015000Y3485000D02*
Y3410940D01*
X2027700Y3398240D01*
X2136900D01*
X2149600Y3385540D01*
Y3360140D01*
X2136900Y3347440D01*
X2027700D01*
X2015000Y3334740D01*
Y3314700D01*
X2027700Y3302000D01*
X2074500D01*
X2125000Y3251500D01*
Y3060000D01*
G01X2380060Y2916000D02*
X2425000Y2960940D01*
Y3060000D01*
G01X2841500Y3487500D02*
Y3304810D01*
X2452690Y2916000D01*
X2380060D01*
G01X2065000Y4335000D02*
Y4158000D01*
X2222500Y4000500D01*
X2476500D01*
X2667000Y3810000D01*
Y3490330D01*
X2549610Y3372940D01*
X2547440D01*
X2540000Y3365500D01*
X2487280D01*
X2325000Y3203220D01*
Y3060000D01*
G01X2275000D02*
Y3189150D01*
X2476750Y3390900D01*
X2529470D01*
X2641600Y3503030D01*
Y3799470D01*
X2465970Y3975100D01*
X2211970D01*
X2000000Y4187070D01*
Y4335000D01*
G01X2130000D02*
Y4282500D01*
X2348500Y4064000D01*
X2448930D01*
X2841500Y3671430D01*
Y3487500D01*
G01X4150000Y2600000D02*
X3986000D01*
X3711000Y2325000D01*
X2660000D01*
G01Y2875000D02*
X3054500D01*
X3179500Y3000000D01*
X4150000D01*
G01X4350000D02*
X4314070D01*
X4223900Y2909830D01*
X3152830D01*
X3068000Y2825000D01*
X2660000D01*
G01X4350000Y2600000D02*
X4259830Y2690170D01*
X3003830D01*
X2969000Y2725000D01*
X2660000D01*
G01X4350000Y3400000D02*
X4259830Y3490170D01*
X4112640D01*
X4109970Y3487500D01*
X2841500D01*
G01X3565000Y2200000D02*
Y1900000D01*
G01Y2200000D02*
X3950000D01*
X4150000Y2400000D01*
G54D18*
X1690000Y4345000D03*
X2310000D03*
G54D28*
G01X565000Y1700000D02*
X643180D01*
G01X435000D02*
X356820D01*
G01X565000Y2000000D02*
X643180D01*
G01X435000D02*
X356820D01*
G01X860000Y3000000D02*
X963170D01*
G01X540000D02*
X436820D01*
G01X376480Y3502500D02*
X267820D01*
G01X823520D02*
X932180D01*
G01X376480Y3567500D02*
Y3632500D01*
G01Y3697500D02*
X267820D01*
G01X700000Y4035000D02*
Y3956820D01*
G01X376480Y3632500D02*
Y3697500D01*
G01X700000Y4165000D02*
Y4243180D01*
G01X1035000Y2600000D02*
X956820D01*
G01X1200000Y3535000D02*
Y3456820D01*
G01X1000000Y4035000D02*
Y3956820D01*
G01Y4165000D02*
Y4243180D01*
G01X2000000Y335000D02*
Y256820D01*
G01X2400000Y334750D02*
Y269320D01*
G01X2075000Y3060000D02*
Y3183170D01*
G01X2015000Y3715000D02*
X1975010D01*
X1888250Y3628240D01*
Y3369920D01*
X2075000Y3183170D01*
G01X2225000Y3060000D02*
Y3183170D01*
G01X2375000Y3060000D02*
Y3183170D01*
G01X2015000Y3715000D02*
X2054990D01*
X2132460Y3792470D01*
Y3832460D01*
X2173500Y3873500D01*
X2421410D01*
X2540000Y3754910D01*
Y3600010D01*
X2424990Y3485000D01*
X2385000D01*
G01X1870000Y4335000D02*
Y4221820D01*
G01X3435000Y1900000D02*
X3356820D01*
G01X3435000Y2200000D02*
X3356820D01*
G01X3300000Y2765000D02*
Y2843180D01*
G01Y2635000D02*
Y2556820D01*
G54D19*
X1620000Y4600000D03*
X2380000D03*
M02*
